<svg width="463" height="105" viewBox="0 0 463 105" fill="none" xmlns="http://www.w3.org/2000/svg">
<g filter="url(#filter0_d_34_60)">
<path d="M4 70.5C4 58.8268 4 52.9903 6.36157 48.5721C8.22624 45.0835 11.0835 42.2262 14.5721 40.3616C18.9903 38 24.8268 38 36.5 38H187.405C191.971 38 196.198 40.4097 198.524 44.3388V44.3388C199.305 45.6579 200.315 46.8276 201.505 47.7931L203.67 49.548C204.93 50.5699 205.561 51.0809 206.225 51.536C207.434 52.3646 208.73 53.0578 210.091 53.6031C210.838 53.9025 211.613 54.1428 213.163 54.6234L217.92 56.0984C223.912 57.9565 226.908 58.8855 229.995 58.8683C233.081 58.8512 236.067 57.8889 242.038 55.9644L246.349 54.5749C247.981 54.0488 248.797 53.7858 249.583 53.4562C250.615 53.0236 251.609 52.5051 252.554 51.9062C253.274 51.45 253.957 50.9312 255.322 49.8934L258.036 47.8304C259.337 46.8417 260.434 45.6104 261.266 44.2045V44.2045C263.543 40.3587 267.681 38 272.15 38H426.5C438.173 38 444.01 38 448.428 40.3616C451.916 42.2262 454.774 45.0835 456.638 48.5721C459 52.9903 459 58.8268 459 70.5V70.5C459 82.1732 459 88.0097 456.638 92.4279C454.774 95.9165 451.916 98.7738 448.428 100.638C444.01 103 438.173 103 426.5 103H36.5C24.8268 103 18.9903 103 14.5721 100.638C11.0835 98.7738 8.22624 95.9165 6.36157 92.4279C4 88.0097 4 82.1732 4 70.5V70.5Z" fill="white"/>
</g>
<path d="M34.115 70.75V59.4325L30.255 62.3125L29.5 61.3225L42 52L47.4325 56.0288V53.25H49.7888V57.7987L54.5238 61.3225L53.77 62.3125L49.9088 59.4325V70.75H43.5388V64.2125H40.4613V70.75H34.115ZM35.365 69.5H39.2125V62.9625H44.79V69.5H48.66V58.5125L42 53.57L35.365 58.5125V69.5ZM39.74 59.5075H44.26C44.26 58.9208 44.0342 58.4379 43.5825 58.0588C43.13 57.6796 42.6025 57.49 42 57.49C41.3975 57.49 40.8704 57.6788 40.4188 58.0563C39.9671 58.4338 39.7408 58.9183 39.74 59.5075ZM39.2125 69.5V62.9625H44.79H39.2113L39.2125 69.5Z" fill="#697896"/>
<path d="M150.5 48.8333L150.962 48.14L150.752 48H150.5V48.8333ZM155.5 52.1667H156.333V51.72L155.962 51.4733L155.5 52.1667ZM153.833 68H140.5V69.6667H153.833V68ZM139.667 67.1667V50.5H138V67.1667H139.667ZM140.5 49.6667H150.5V48H140.5V49.6667ZM154.667 52.1667V67.1667H156.333V52.1667H154.667ZM150.038 49.5267L155.038 52.86L155.962 51.4733L150.962 48.14L150.038 49.5267ZM140.5 68C140.279 68 140.067 67.9122 139.911 67.7559C139.754 67.5996 139.667 67.3877 139.667 67.1667H138C138 67.8297 138.263 68.4656 138.732 68.9344C139.201 69.4033 139.837 69.6667 140.5 69.6667V68ZM153.833 69.6667C154.496 69.6667 155.132 69.4033 155.601 68.9344C156.07 68.4656 156.333 67.8297 156.333 67.1667H154.667C154.667 67.3877 154.579 67.5996 154.423 67.7559C154.266 67.9122 154.054 68 153.833 68V69.6667ZM139.667 50.5C139.667 50.279 139.754 50.067 139.911 49.9107C140.067 49.7545 140.279 49.6667 140.5 49.6667V48C139.837 48 139.201 48.2634 138.732 48.7322C138.263 49.2011 138 49.837 138 50.5H139.667ZM134.667 53.8333V70.5H136.333V53.8333H134.667ZM137.167 73H150.5V71.3333H137.167V73ZM137.167 53H138.833V51.3333H137.167V53ZM153 70.5V68.8333H151.333V70.5H153ZM150.5 73C151.163 73 151.799 72.7366 152.268 72.2678C152.737 71.7989 153 71.163 153 70.5H151.333C151.333 70.721 151.246 70.933 151.089 71.0893C150.933 71.2455 150.721 71.3333 150.5 71.3333V73ZM134.667 70.5C134.667 71.163 134.93 71.7989 135.399 72.2678C135.868 72.7366 136.504 73 137.167 73V71.3333C136.946 71.3333 136.734 71.2455 136.577 71.0893C136.421 70.933 136.333 70.721 136.333 70.5H134.667ZM136.333 53.8333C136.333 53.6123 136.421 53.4004 136.577 53.2441C136.734 53.0878 136.946 53 137.167 53V51.3333C136.504 51.3333 135.868 51.5967 135.399 52.0656C134.93 52.5344 134.667 53.1703 134.667 53.8333H136.333Z" fill="#697896"/>
<g clip-path="url(#clip0_34_60)">
<path d="M316.925 69.7674C316.33 69.7674 315.833 69.5692 315.435 69.1727C315.037 68.7761 314.838 68.2809 314.837 67.687V53.8246C314.837 53.2315 315.037 52.7367 315.435 52.3402C315.834 51.9437 316.33 51.745 316.924 51.7442H323.359L325.943 54.3189H336.006C336.601 54.3189 337.097 54.5176 337.496 54.915C337.895 55.3123 338.094 55.8071 338.093 56.3993V67.6883C338.093 68.2805 337.894 68.7753 337.496 69.1727C337.098 69.57 336.602 69.7683 336.006 69.7674H316.925ZM316.925 68.4801H336.006C336.238 68.4801 336.429 68.4058 336.578 68.2573C336.727 68.1089 336.801 67.9192 336.801 67.6883V56.398C336.801 56.1672 336.727 55.9775 336.578 55.829C336.429 55.6805 336.238 55.6063 336.006 55.6063H325.425L322.841 53.0315H316.924C316.692 53.0315 316.502 53.1058 316.353 53.2543C316.204 53.4027 316.129 53.5928 316.129 53.8246V67.6883C316.129 67.9192 316.204 68.1089 316.353 68.2573C316.502 68.4058 316.693 68.4801 316.925 68.4801Z" fill="#697896"/>
</g>
<path fill-rule="evenodd" clip-rule="evenodd" d="M414 53.875C414 52.6815 414.474 51.5369 415.318 50.693C416.162 49.8491 417.307 49.375 418.5 49.375C419.693 49.375 420.838 49.8491 421.682 50.693C422.526 51.5369 423 52.6815 423 53.875C423 55.0685 422.526 56.2131 421.682 57.057C420.838 57.9009 419.693 58.375 418.5 58.375C417.307 58.375 416.162 57.9009 415.318 57.057C414.474 56.2131 414 55.0685 414 53.875ZM414 60.625C412.508 60.625 411.077 61.2176 410.023 62.2725C408.968 63.3274 408.375 64.7582 408.375 66.25C408.375 67.1451 408.731 68.0036 409.364 68.6365C409.996 69.2694 410.855 69.625 411.75 69.625H425.25C426.145 69.625 427.004 69.2694 427.636 68.6365C428.269 68.0036 428.625 67.1451 428.625 66.25C428.625 64.7582 428.032 63.3274 426.977 62.2725C425.923 61.2176 424.492 60.625 423 60.625H414Z" fill="#226DFE"/>
<rect x="202" width="55" height="55" rx="27.5" fill="#226DFE"/>
<path d="M235.938 32.9375H241.875V38.875H235.938V32.9375ZM231.188 28.1875H235.938V32.9375H231.188V28.1875ZM241.875 38.875H246.625V43.625H241.875V38.875ZM243.062 28.1875H246.625V31.75H243.062V28.1875ZM231.188 40.0625H234.75V43.625H231.188V40.0625ZM235.938 15.125H241.875V21.0625H235.938V15.125Z" fill="white"/>
<path d="M246.625 25.8125H231.188V10.375H246.625V25.8125ZM234.453 22.5469H243.359V13.6406H234.453V22.5469ZM218.125 15.125H224.062V21.0625H218.125V15.125Z" fill="white"/>
<path d="M228.812 25.8125H213.375V10.375H228.812V25.8125ZM216.641 22.5469H225.547V13.6406H216.641V22.5469ZM218.125 32.9375H224.062V38.875H218.125V32.9375Z" fill="white"/>
<path d="M228.812 43.625H213.375V28.1875H228.812V43.625ZM216.641 40.3594H225.547V31.4531H216.641V40.3594Z" fill="white"/>
<path d="M34.3011 80.267V81.2045H30.6875V80.267H34.3011ZM30.9261 77.4545V84H29.9205V77.4545H30.9261ZM35.0682 77.4545V84H34.0625V77.4545H35.0682ZM36.1591 77.4545H37.25L38.9716 82.4318L40.6591 77.4545H41.75L39.4659 83.8636V86.4545H38.4602V83.8636L36.1591 77.4545ZM42.5692 77.4545H43.6602L45.3817 82.4318L47.0692 77.4545H48.1602L45.8761 83.8636V86.4545H44.8704V83.8636L42.5692 77.4545ZM49.4908 86.4545V77.4545H50.4624V78.4943H50.5817C50.6555 78.3807 50.7578 78.2358 50.8885 78.0597C51.022 77.8807 51.2124 77.7216 51.4595 77.5824C51.7095 77.4403 52.0476 77.3693 52.4737 77.3693C53.0249 77.3693 53.5107 77.5071 53.9311 77.7827C54.3516 78.0582 54.6797 78.4489 54.9155 78.9545C55.1513 79.4602 55.2692 80.0568 55.2692 80.7443C55.2692 81.4375 55.1513 82.0384 54.9155 82.5469C54.6797 83.0526 54.353 83.4446 53.9354 83.723C53.5178 83.9986 53.0362 84.1364 52.4908 84.1364C52.0703 84.1364 51.7337 84.0668 51.4808 83.9276C51.228 83.7855 51.0334 83.625 50.897 83.446C50.7607 83.2642 50.6555 83.1136 50.5817 82.9943H50.4964V86.4545H49.4908ZM50.4794 80.7273C50.4794 81.2216 50.5518 81.6577 50.6967 82.0355C50.8416 82.4105 51.0533 82.7045 51.3317 82.9176C51.6101 83.1278 51.951 83.233 52.3544 83.233C52.7749 83.233 53.1257 83.1222 53.407 82.9006C53.6911 82.6761 53.9041 82.375 54.0462 81.9972C54.1911 81.6165 54.2635 81.1932 54.2635 80.7273C54.2635 80.267 54.1925 79.8523 54.0504 79.483C53.9112 79.1108 53.6996 78.8168 53.4155 78.6009C53.1342 78.3821 52.7805 78.2727 52.3544 78.2727C51.9453 78.2727 51.6016 78.3764 51.3232 78.5838C51.0447 78.7884 50.8345 79.0753 50.6925 79.4446C50.5504 79.8111 50.4794 80.2386 50.4794 80.7273Z" fill="#697896"/>
<path d="M114.307 76.2727H115.517L117.938 80.3466H118.04L120.46 76.2727H121.67L118.517 81.4034V85H117.46V81.4034L114.307 76.2727ZM123.426 83.517L126.58 78.4545H127.739V85H126.733V79.9375L123.597 85H122.42V78.4545H123.426V83.517ZM125.915 76.2727H126.852C126.852 76.733 126.693 77.1094 126.375 77.402C126.057 77.6946 125.625 77.8409 125.08 77.8409C124.543 77.8409 124.115 77.6946 123.797 77.402C123.482 77.1094 123.324 76.733 123.324 76.2727H124.261C124.261 76.4943 124.322 76.6889 124.445 76.8565C124.57 77.0241 124.781 77.108 125.08 77.108C125.378 77.108 125.591 77.0241 125.719 76.8565C125.849 76.6889 125.915 76.4943 125.915 76.2727ZM129.001 85V84.0625H129.24C129.436 84.0625 129.599 84.0241 129.73 83.9474C129.86 83.8679 129.966 83.7301 130.045 83.5341C130.127 83.3352 130.19 83.0597 130.233 82.7074C130.278 82.3523 130.311 81.9006 130.331 81.3523L130.45 78.4545H134.814V85H133.808V79.392H131.404L131.302 81.7273C131.279 82.2642 131.231 82.7372 131.157 83.1463C131.086 83.5526 130.977 83.8935 130.829 84.169C130.684 84.4446 130.491 84.652 130.25 84.7912C130.008 84.9304 129.706 85 129.342 85H129.001ZM141.704 78.4545V85H140.699V78.4545H141.704ZM141.312 81.5739V82.5114C141.085 82.5966 140.859 82.6719 140.635 82.7372C140.41 82.7997 140.174 82.8494 139.927 82.8864C139.68 82.9205 139.409 82.9375 139.113 82.9375C138.372 82.9375 137.777 82.7372 137.328 82.3366C136.882 81.9361 136.659 81.3352 136.659 80.5341V78.4375H137.664V80.5341C137.664 80.8693 137.728 81.1449 137.856 81.3608C137.984 81.5767 138.157 81.7372 138.376 81.8423C138.595 81.9474 138.841 82 139.113 82C139.539 82 139.924 81.9616 140.268 81.8849C140.615 81.8054 140.963 81.7017 141.312 81.5739ZM144.555 83.517L147.708 78.4545H148.868V85H147.862V79.9375L144.725 85H143.549V78.4545H144.555V83.517ZM150.13 85V84.0625H150.369C150.565 84.0625 150.728 84.0241 150.859 83.9474C150.989 83.8679 151.094 83.7301 151.174 83.5341C151.256 83.3352 151.319 83.0597 151.362 82.7074C151.407 82.3523 151.44 81.9006 151.46 81.3523L151.579 78.4545H155.942V85H154.937V79.392H152.533L152.431 81.7273C152.408 82.2642 152.36 82.7372 152.286 83.1463C152.215 83.5526 152.106 83.8935 151.958 84.169C151.813 84.4446 151.62 84.652 151.379 84.7912C151.137 84.9304 150.835 85 150.471 85H150.13ZM161.827 78.4545V79.392H158.793V85H157.788V78.4545H161.827ZM165.46 79.3068C165.233 79.3097 165.004 79.3679 164.774 79.4815C164.547 79.5952 164.357 79.7457 164.203 79.9332C164.053 80.1179 163.977 80.3239 163.977 80.5511H162.989C162.989 80.267 163.057 79.9943 163.193 79.733C163.33 79.4716 163.513 79.2386 163.743 79.0341C163.976 78.8295 164.24 78.6676 164.536 78.5483C164.834 78.429 165.142 78.3693 165.46 78.3693C166.057 78.3693 166.563 78.5199 166.977 78.821C167.395 79.1222 167.712 79.5199 167.928 80.0142C168.146 80.5085 168.256 81.0455 168.256 81.625V81.8636C168.256 82.4403 168.146 82.9773 167.928 83.4744C167.712 83.9687 167.395 84.3665 166.977 84.6676C166.563 84.9687 166.057 85.1193 165.46 85.1193C164.983 85.1193 164.558 85.0142 164.186 84.804C163.814 84.5909 163.521 84.3068 163.308 83.9517C163.095 83.5966 162.989 83.2017 162.989 82.767H163.977C163.977 83.0142 164.047 83.2457 164.186 83.4616C164.328 83.6747 164.511 83.848 164.736 83.9815C164.963 84.1122 165.205 84.179 165.46 84.1818C165.841 84.179 166.165 84.0597 166.432 83.8239C166.699 83.5881 166.902 83.2926 167.041 82.9375C167.18 82.5824 167.25 82.2244 167.25 81.8636V81.625C167.25 81.2557 167.18 80.8949 167.041 80.5426C166.905 80.1875 166.703 79.8935 166.436 79.6605C166.172 79.4276 165.847 79.3097 165.46 79.3068ZM167.659 81.233V82.1705H164.795V81.233H167.659ZM171.952 79.3068C171.725 79.3097 171.496 79.3679 171.266 79.4815C171.039 79.5952 170.849 79.7457 170.695 79.9332C170.545 80.1179 170.469 80.3239 170.469 80.5511H169.481C169.481 80.267 169.549 79.9943 169.685 79.733C169.822 79.4716 170.005 79.2386 170.235 79.0341C170.468 78.8295 170.732 78.6676 171.028 78.5483C171.326 78.429 171.634 78.3693 171.952 78.3693C172.549 78.3693 173.055 78.5199 173.469 78.821C173.887 79.1222 174.204 79.5199 174.42 80.0142C174.638 80.5085 174.748 81.0455 174.748 81.625V81.8636C174.748 82.4403 174.638 82.9773 174.42 83.4744C174.204 83.9687 173.887 84.3665 173.469 84.6676C173.055 84.9687 172.549 85.1193 171.952 85.1193C171.475 85.1193 171.05 85.0142 170.678 84.804C170.306 84.5909 170.013 84.3068 169.8 83.9517C169.587 83.5966 169.481 83.2017 169.481 82.767H170.469C170.469 83.0142 170.539 83.2457 170.678 83.4616C170.82 83.6747 171.004 83.848 171.228 83.9815C171.455 84.1122 171.697 84.179 171.952 84.1818C172.333 84.179 172.657 84.0597 172.924 83.8239C173.191 83.5881 173.394 83.2926 173.533 82.9375C173.673 82.5824 173.742 82.2244 173.742 81.8636V81.625C173.742 81.2557 173.673 80.8949 173.533 80.5426C173.397 80.1875 173.195 79.8935 172.928 79.6605C172.664 79.4276 172.339 79.3097 171.952 79.3068ZM174.151 81.233V82.1705H171.288V81.233H174.151Z" fill="#697896"/>
<path d="M312.301 80.267V81.2045H308.688V80.267H312.301ZM308.926 77.4545V84H307.92V77.4545H308.926ZM313.068 77.4545V84H312.062V77.4545H313.068ZM317.07 78.3068C316.842 78.3097 316.614 78.3679 316.384 78.4815C316.156 78.5952 315.966 78.7457 315.812 78.9332C315.662 79.1179 315.587 79.3239 315.587 79.5511H314.598C314.598 79.267 314.666 78.9943 314.803 78.733C314.939 78.4716 315.122 78.2386 315.352 78.0341C315.585 77.8295 315.849 77.6676 316.145 77.5483C316.443 77.429 316.751 77.3693 317.07 77.3693C317.666 77.3693 318.172 77.5199 318.587 77.821C319.004 78.1222 319.321 78.5199 319.537 79.0142C319.756 79.5085 319.865 80.0455 319.865 80.625V80.8636C319.865 81.4403 319.756 81.9773 319.537 82.4744C319.321 82.9687 319.004 83.3665 318.587 83.6676C318.172 83.9687 317.666 84.1193 317.07 84.1193C316.592 84.1193 316.168 84.0142 315.795 83.804C315.423 83.5909 315.131 83.3068 314.918 82.9517C314.705 82.5966 314.598 82.2017 314.598 81.767H315.587C315.587 82.0142 315.656 82.2457 315.795 82.4616C315.938 82.6747 316.121 82.848 316.345 82.9815C316.572 83.1122 316.814 83.179 317.07 83.1818C317.45 83.179 317.774 83.0597 318.041 82.8239C318.308 82.5881 318.511 82.2926 318.651 81.9375C318.79 81.5824 318.859 81.2244 318.859 80.8636V80.625C318.859 80.2557 318.79 79.8949 318.651 79.5426C318.514 79.1875 318.313 78.8935 318.045 78.6605C317.781 78.4276 317.456 78.3097 317.07 78.3068ZM319.268 80.233V81.1705H316.405V80.233H319.268ZM324.977 82.6364L327.261 77.4545H328.215L325.386 84H324.567L321.789 77.4545H322.727L324.977 82.6364ZM322.403 77.4545V84H321.397V77.4545H322.403ZM327.55 84V77.4545H328.556V84H327.55ZM332.562 78.3068C332.335 78.3097 332.106 78.3679 331.876 78.4815C331.648 78.5952 331.458 78.7457 331.305 78.9332C331.154 79.1179 331.079 79.3239 331.079 79.5511H330.09C330.09 79.267 330.158 78.9943 330.295 78.733C330.431 78.4716 330.614 78.2386 330.844 78.0341C331.077 77.8295 331.342 77.6676 331.637 77.5483C331.935 77.429 332.244 77.3693 332.562 77.3693C333.158 77.3693 333.664 77.5199 334.079 77.821C334.496 78.1222 334.813 78.5199 335.029 79.0142C335.248 79.5085 335.357 80.0455 335.357 80.625V80.8636C335.357 81.4403 335.248 81.9773 335.029 82.4744C334.813 82.9687 334.496 83.3665 334.079 83.6676C333.664 83.9687 333.158 84.1193 332.562 84.1193C332.085 84.1193 331.66 84.0142 331.288 83.804C330.915 83.5909 330.623 83.3068 330.41 82.9517C330.197 82.5966 330.09 82.2017 330.09 81.767H331.079C331.079 82.0142 331.148 82.2457 331.288 82.4616C331.43 82.6747 331.613 82.848 331.837 82.9815C332.065 83.1122 332.306 83.179 332.562 83.1818C332.942 83.179 333.266 83.0597 333.533 82.8239C333.8 82.5881 334.004 82.2926 334.143 81.9375C334.282 81.5824 334.352 81.2244 334.352 80.8636V80.625C334.352 80.2557 334.282 79.8949 334.143 79.5426C334.006 79.1875 333.805 78.8935 333.538 78.6605C333.273 78.4276 332.948 78.3097 332.562 78.3068ZM334.761 80.233V81.1705H331.897V80.233H334.761ZM336.31 84V83.0625H336.548C336.744 83.0625 336.908 83.0241 337.038 82.9474C337.169 82.8679 337.274 82.7301 337.354 82.5341C337.436 82.3352 337.499 82.0597 337.541 81.7074C337.587 81.3523 337.619 80.9006 337.639 80.3523L337.759 77.4545H342.122V84H341.116V78.392H338.713L338.611 80.7273C338.588 81.2642 338.54 81.7372 338.466 82.1463C338.395 82.5526 338.286 82.8935 338.138 83.169C337.993 83.4446 337.8 83.652 337.558 83.7912C337.317 83.9304 337.014 84 336.651 84H336.31ZM343.077 78.392V77.4545H348.395V78.392H346.247V84H345.241V78.392H343.077Z" fill="#697896"/>
<path d="M397.92 81V74.4545H403.068V81H402.062V75.392H398.926V81H397.92ZM404.905 83.4545V74.4545H405.876V75.4943H405.996C406.07 75.3807 406.172 75.2358 406.303 75.0597C406.436 74.8807 406.626 74.7216 406.874 74.5824C407.124 74.4403 407.462 74.3693 407.888 74.3693C408.439 74.3693 408.925 74.5071 409.345 74.7827C409.766 75.0582 410.094 75.4489 410.33 75.9545C410.565 76.4602 410.683 77.0568 410.683 77.7443C410.683 78.4375 410.565 79.0384 410.33 79.5469C410.094 80.0526 409.767 80.4446 409.349 80.723C408.932 80.9986 408.45 81.1364 407.905 81.1364C407.484 81.1364 407.148 81.0668 406.895 80.9276C406.642 80.7855 406.447 80.625 406.311 80.446C406.175 80.2642 406.07 80.1136 405.996 79.9943H405.911V83.4545H404.905ZM405.893 77.7273C405.893 78.2216 405.966 78.6577 406.111 79.0355C406.256 79.4105 406.467 79.7045 406.746 79.9176C407.024 80.1278 407.365 80.233 407.768 80.233C408.189 80.233 408.54 80.1222 408.821 79.9006C409.105 79.6761 409.318 79.375 409.46 78.9972C409.605 78.6165 409.678 78.1932 409.678 77.7273C409.678 77.267 409.607 76.8523 409.464 76.483C409.325 76.1108 409.114 75.8168 408.83 75.6009C408.548 75.3821 408.195 75.2727 407.768 75.2727C407.359 75.2727 407.016 75.3764 406.737 75.5838C406.459 75.7884 406.249 76.0753 406.107 76.4446C405.964 76.8111 405.893 77.2386 405.893 77.7273ZM414.876 81.1364C414.286 81.1364 413.767 80.9957 413.321 80.7145C412.878 80.4332 412.531 80.0398 412.281 79.5341C412.034 79.0284 411.911 78.4375 411.911 77.7614C411.911 77.0795 412.034 76.4844 412.281 75.9759C412.531 75.4673 412.878 75.0724 413.321 74.7912C413.767 74.5099 414.286 74.3693 414.876 74.3693C415.467 74.3693 415.984 74.5099 416.428 74.7912C416.874 75.0724 417.22 75.4673 417.467 75.9759C417.717 76.4844 417.842 77.0795 417.842 77.7614C417.842 78.4375 417.717 79.0284 417.467 79.5341C417.22 80.0398 416.874 80.4332 416.428 80.7145C415.984 80.9957 415.467 81.1364 414.876 81.1364ZM414.876 80.233C415.325 80.233 415.695 80.1179 415.984 79.8878C416.274 79.6577 416.489 79.3551 416.628 78.9801C416.767 78.6051 416.837 78.1989 416.837 77.7614C416.837 77.3239 416.767 76.9162 416.628 76.5384C416.489 76.1605 416.274 75.8551 415.984 75.6222C415.695 75.3892 415.325 75.2727 414.876 75.2727C414.428 75.2727 414.058 75.3892 413.768 75.6222C413.479 75.8551 413.264 76.1605 413.125 76.5384C412.986 76.9162 412.916 77.3239 412.916 77.7614C412.916 78.1989 412.986 78.6051 413.125 78.9801C413.264 79.3551 413.479 79.6577 413.768 79.8878C414.058 80.1179 414.428 80.233 414.876 80.233ZM422.037 83.233V72.2727H423.042V83.233H422.037ZM422.037 81.1364C421.593 81.1364 421.19 81.0568 420.826 80.8977C420.463 80.7358 420.15 80.5071 419.889 80.2116C419.627 79.9134 419.426 79.5568 419.284 79.142C419.142 78.7273 419.071 78.267 419.071 77.7614C419.071 77.25 419.142 76.7869 419.284 76.3722C419.426 75.9545 419.627 75.5966 419.889 75.2983C420.15 75 420.463 74.7713 420.826 74.6122C421.19 74.4503 421.593 74.3693 422.037 74.3693H422.343V81.1364H422.037ZM422.037 80.233H422.207V75.2727H422.037C421.701 75.2727 421.41 75.3409 421.163 75.4773C420.916 75.6108 420.711 75.794 420.549 76.027C420.39 76.2571 420.271 76.5213 420.191 76.8196C420.115 77.1179 420.076 77.4318 420.076 77.7614C420.076 78.1989 420.146 78.6051 420.285 78.9801C420.424 79.3551 420.639 79.6577 420.929 79.8878C421.218 80.1179 421.588 80.233 422.037 80.233ZM423.042 81.1364H422.735V74.3693H423.042C423.485 74.3693 423.889 74.4503 424.252 74.6122C424.616 74.7713 424.929 75 425.19 75.2983C425.451 75.5966 425.653 75.9545 425.795 76.3722C425.937 76.7869 426.008 77.25 426.008 77.7614C426.008 78.267 425.937 78.7273 425.795 79.142C425.653 79.5568 425.451 79.9134 425.19 80.2116C424.929 80.5071 424.616 80.7358 424.252 80.8977C423.889 81.0568 423.485 81.1364 423.042 81.1364ZM423.042 80.233C423.38 80.233 423.672 80.1676 423.916 80.0369C424.163 79.9034 424.366 79.7216 424.525 79.4915C424.687 79.2585 424.806 78.9943 424.883 78.6989C424.963 78.4006 425.002 78.0881 425.002 77.7614C425.002 77.3239 424.933 76.9162 424.794 76.5384C424.654 76.1605 424.44 75.8551 424.15 75.6222C423.86 75.3892 423.491 75.2727 423.042 75.2727H422.872V80.233H423.042ZM429.472 81.1534C429.057 81.1534 428.68 81.0753 428.342 80.919C428.004 80.7599 427.736 80.5312 427.537 80.233C427.338 79.9318 427.239 79.5682 427.239 79.142C427.239 78.767 427.313 78.4631 427.46 78.2301C427.608 77.9943 427.805 77.8097 428.053 77.6761C428.3 77.5426 428.572 77.4432 428.871 77.3778C429.172 77.3097 429.474 77.2557 429.778 77.2159C430.176 77.1648 430.499 77.1264 430.746 77.1009C430.996 77.0724 431.178 77.0256 431.291 76.9602C431.408 76.8949 431.466 76.7812 431.466 76.6193V76.5852C431.466 76.1648 431.351 75.8381 431.121 75.6051C430.893 75.3722 430.548 75.2557 430.085 75.2557C429.605 75.2557 429.229 75.3608 428.956 75.571C428.683 75.7812 428.491 76.0057 428.381 76.2443L427.426 75.9034C427.597 75.5057 427.824 75.196 428.108 74.9744C428.395 74.75 428.707 74.5937 429.045 74.5057C429.386 74.4148 429.722 74.3693 430.051 74.3693C430.261 74.3693 430.503 74.3949 430.776 74.446C431.051 74.4943 431.317 74.5952 431.572 74.7486C431.831 74.902 432.045 75.1335 432.216 75.4432C432.386 75.7528 432.472 76.1676 432.472 76.6875V81H431.466V80.1136H431.415C431.347 80.2557 431.233 80.4077 431.074 80.5696C430.915 80.7315 430.703 80.8693 430.439 80.983C430.175 81.0966 429.852 81.1534 429.472 81.1534ZM429.625 80.25C430.023 80.25 430.358 80.1719 430.631 80.0156C430.906 79.8594 431.114 79.6577 431.253 79.4105C431.395 79.1634 431.466 78.9034 431.466 78.6307V77.7102C431.423 77.7614 431.33 77.8082 431.185 77.8509C431.043 77.8906 430.878 77.9261 430.69 77.9574C430.506 77.9858 430.325 78.0114 430.149 78.0341C429.976 78.054 429.835 78.071 429.727 78.0852C429.466 78.1193 429.222 78.1747 428.994 78.2514C428.77 78.3253 428.588 78.4375 428.449 78.5881C428.313 78.7358 428.244 78.9375 428.244 79.1932C428.244 79.5426 428.374 79.8068 428.632 79.9858C428.893 80.1619 429.224 80.25 429.625 80.25ZM435.313 79.517L438.466 74.4545H439.625V81H438.62V75.9375L435.483 81H434.307V74.4545H435.313V79.517ZM437.801 72.2727H438.739C438.739 72.733 438.58 73.1094 438.262 73.402C437.944 73.6946 437.512 73.8409 436.966 73.8409C436.429 73.8409 436.002 73.6946 435.684 73.402C435.368 73.1094 435.211 72.733 435.211 72.2727H436.148C436.148 72.4943 436.209 72.6889 436.331 72.8565C436.456 73.0241 436.668 73.108 436.966 73.108C437.265 73.108 437.478 73.0241 437.605 72.8565C437.736 72.6889 437.801 72.4943 437.801 72.2727ZM440.888 81V80.0625H441.126C441.322 80.0625 441.486 80.0241 441.616 79.9474C441.747 79.8679 441.852 79.7301 441.932 79.5341C442.014 79.3352 442.077 79.0597 442.119 78.7074C442.165 78.3523 442.197 77.9006 442.217 77.3523L442.337 74.4545H446.7V81H445.695V75.392H443.291L443.189 77.7273C443.166 78.2642 443.118 78.7372 443.044 79.1463C442.973 79.5526 442.864 79.8935 442.716 80.169C442.571 80.4446 442.378 80.652 442.136 80.7912C441.895 80.9304 441.592 81 441.229 81H440.888Z" fill="#226DFE"/>
<path d="M397 38H440V39C440 41.7614 437.761 44 435 44H402C399.239 44 397 41.7614 397 39V38Z" fill="#226DFE"/>
<defs>
<filter id="filter0_d_34_60" x="0" y="32" width="463" height="73" filterUnits="userSpaceOnUse" color-interpolation-filters="sRGB">
<feFlood flood-opacity="0" result="BackgroundImageFix"/>
<feColorMatrix in="SourceAlpha" type="matrix" values="0 0 0 0 0 0 0 0 0 0 0 0 0 0 0 0 0 0 127 0" result="hardAlpha"/>
<feOffset dy="-2"/>
<feGaussianBlur stdDeviation="2"/>
<feComposite in2="hardAlpha" operator="out"/>
<feColorMatrix type="matrix" values="0 0 0 0 0 0 0 0 0 0 0 0 0 0 0 0 0 0 0.25 0"/>
<feBlend mode="normal" in2="BackgroundImageFix" result="effect1_dropShadow_34_60"/>
<feBlend mode="normal" in="SourceGraphic" in2="effect1_dropShadow_34_60" result="shape"/>
</filter>
<clipPath id="clip0_34_60">
<rect width="25" height="25" fill="white" transform="translate(316 50)"/>
</clipPath>
</defs>
</svg>
